# xmcd
#
# Track frame offsets:
#	150
#	25244
#	40524
#	61870
#	79420
#	97486
#	117590
#	142108
#	164384
#
# Disc length: 2612 seconds
# Revision: 0
# Processed by: cddbd v1.5.2PL0 Copyright (c) Steve Scherf et al.
# Submitted via: dBpowerAMP V12.0
#
DISCID=7e0a3209
DTITLE=Pete Carr - Not a Word on it [Big Tree] (prc)
DYEAR=1976
DGENRE=Blues
TTITLE0=Tuscumbian Lover
TTITLE1=Foxfire
TTITLE2=Journey With The Breeze
TTITLE3=On Lucifer's Knee
TTITLE4=Theme From Sparkle
TTITLE5=Trapped In A Bubble
TTITLE6=Broken Stone
TTITLE7=Race Of The Computers
TTITLE8=Twisted Hair
EXTD=
EXTT0=
EXTT1=
EXTT2=
EXTT3=
EXTT4=
EXTT5=
EXTT6=
EXTT7=
EXTT8=
PLAYORDER=
